<svg width="37" height="38" viewBox="0 0 37 38" fill="currentColor" xmlns="http://www.w3.org/2000/svg">
<path d="M32.375 30.0833V31.6666H4.625V30.0833L7.70833 26.9166V17.4166C7.70833 12.5083 10.8379 8.18579 15.4167 6.79246V6.33329C15.4167 5.49344 15.7415 4.68799 16.3198 4.09412C16.898 3.50026 17.6822 3.16663 18.5 3.16663C19.3178 3.16663 20.102 3.50026 20.6802 4.09412C21.2585 4.68799 21.5833 5.49344 21.5833 6.33329V6.79246C26.1621 8.18579 29.2917 12.5083 29.2917 17.4166V26.9166L32.375 30.0833ZM21.5833 33.25C21.5833 34.0898 21.2585 34.8953 20.6802 35.4891C20.102 36.083 19.3178 36.4166 18.5 36.4166C17.6822 36.4166 16.898 36.083 16.3198 35.4891C15.7415 34.8953 15.4167 34.0898 15.4167 33.25" fill="currentColor"/>
</svg>
