<svg width="37" height="37" viewBox="0 0 37 37" fill="none" xmlns="http://www.w3.org/2000/svg">
<path d="M32.9098 6.98092L25.3363 33.8493C25.21 34.3042 24.9467 34.7092 24.582 35.0092C24.2174 35.3092 23.7692 35.4896 23.2984 35.5258H23.0961C22.6605 35.5249 22.2341 35.4009 21.8659 35.1682C21.4977 34.9355 21.2027 34.6036 21.0148 34.2106L15.8551 23.3129C15.8044 23.2035 15.7884 23.0813 15.809 22.9625C15.8297 22.8437 15.8861 22.734 15.9707 22.6481L23.3852 15.2336C23.5012 15.1285 23.5947 15.0008 23.66 14.8584C23.7252 14.716 23.7608 14.5619 23.7647 14.4053C23.7685 14.2487 23.7405 14.093 23.6824 13.9475C23.6242 13.8021 23.5371 13.67 23.4264 13.5592C23.3156 13.4485 23.1835 13.3614 23.0381 13.3032C22.8927 13.2451 22.7369 13.2171 22.5803 13.2209C22.4237 13.2248 22.2696 13.2604 22.1272 13.3256C21.9848 13.3909 21.8571 13.4844 21.752 13.6004L14.3375 21.0294C14.2516 21.114 14.1419 21.1704 14.0231 21.191C13.9044 21.2117 13.7821 21.1956 13.6727 21.145L2.83282 16.0141C2.40855 15.8137 2.05236 15.4933 1.80832 15.0926C1.56427 14.6918 1.44309 14.2283 1.45977 13.7594C1.48535 13.2766 1.66255 12.8142 1.96616 12.4379C2.26976 12.0617 2.6843 11.7908 3.15078 11.6637L30.077 4.07584C30.5479 3.94134 31.0494 3.95985 31.5091 4.12868C31.9689 4.29752 32.3632 4.60797 32.6352 5.01529C32.8176 5.30474 32.9365 5.62969 32.9838 5.96857C33.0312 6.30746 33.0059 6.65253 32.9098 6.98092Z" fill="black"/>
</svg>
