<svg width="50" height="50" viewBox="0 0 50 50" fill="currentColor" xmlns="http://www.w3.org/2000/svg">
<path d="M25 35.4166C25.5902 35.4166 26.0854 35.2166 26.4854 34.8166C26.8854 34.4166 27.0847 33.9222 27.0833 33.3333V27.0833H33.3854C33.9757 27.0833 34.4618 26.8833 34.8437 26.4833C35.2257 26.0833 35.4166 25.5889 35.4166 25C35.4166 24.4097 35.2166 23.9145 34.8166 23.5145C34.4166 23.1145 33.9222 22.9152 33.3333 22.9166H27.0833V16.6145C27.0833 16.0243 26.8833 15.5382 26.4833 15.1562C26.0833 14.7743 25.5889 14.5833 25 14.5833C24.4097 14.5833 23.9145 14.7833 23.5145 15.1833C23.1145 15.5833 22.9152 16.0777 22.9166 16.6666V22.9166H16.6145C16.0243 22.9166 15.5382 23.1166 15.1562 23.5166C14.7743 23.9166 14.5833 24.4111 14.5833 25C14.5833 25.5902 14.7833 26.0854 15.1833 26.4854C15.5833 26.8854 16.0777 27.0847 16.6666 27.0833H22.9166V33.3854C22.9166 33.9757 23.1166 34.4618 23.5166 34.8437C23.9166 35.2257 24.4111 35.4166 25 35.4166ZM25 45.8333C22.118 45.8333 19.4097 45.2861 16.875 44.1916C14.3402 43.0972 12.1354 41.6132 10.2604 39.7395C8.38538 37.8645 6.90135 35.6597 5.80829 33.125C4.71524 30.5902 4.16801 27.8819 4.16663 25C4.16663 22.118 4.71385 19.4097 5.80829 16.875C6.90274 14.3402 8.38677 12.1354 10.2604 10.2604C12.1354 8.38538 14.3402 6.90135 16.875 5.80829C19.4097 4.71524 22.118 4.16801 25 4.16663C27.8819 4.16663 30.5902 4.71385 33.125 5.80829C35.6597 6.90274 37.8645 8.38677 39.7395 10.2604C41.6145 12.1354 43.0993 14.3402 44.1937 16.875C45.2882 19.4097 45.8347 22.118 45.8333 25C45.8333 27.8819 45.2861 30.5902 44.1916 33.125C43.0972 35.6597 41.6132 37.8645 39.7395 39.7395C37.8645 41.6145 35.6597 43.0993 33.125 44.1937C30.5902 45.2882 27.8819 45.8347 25 45.8333Z" fill="currentColor"/>
</svg>
