<svg width="50" height="50" viewBox="0 0 50 50" fill="currentColor" xmlns="http://www.w3.org/2000/svg">
<path d="M12.5 45.8333C11.3542 45.8333 10.373 45.425 9.55629 44.6083C8.73963 43.7916 8.33199 42.8111 8.33338 41.6666V8.3333C8.33338 7.18746 8.74171 6.20621 9.55838 5.38955C10.375 4.57288 11.3556 4.16524 12.5 4.16663H37.5C38.6459 4.16663 39.6271 4.57496 40.4438 5.39163C41.2605 6.2083 41.6681 7.18885 41.6667 8.3333V41.6666C41.6667 42.8125 41.2584 43.7937 40.4417 44.6104C39.625 45.4271 38.6445 45.8347 37.5 45.8333H12.5ZM22.9167 22.9166L28.125 19.7916L33.3334 22.9166V8.3333H22.9167V22.9166Z" fill="currentColor"/>
</svg>
