<svg width="50" height="50" viewBox="0 0 50 50" fill="currentColor" xmlns="http://www.w3.org/2000/svg">
<path d="M45.4102 42.0899L37.4609 34.1406C40.0283 30.8641 41.418 26.8188 41.4063 22.6563C41.4063 18.9479 40.3066 15.3227 38.2463 12.2393C36.186 9.15589 33.2577 6.75266 29.8316 5.33352C26.4055 3.91437 22.6355 3.54306 18.9983 4.26653C15.3612 4.99001 12.0202 6.77577 9.39801 9.39801C6.77577 12.0202 4.99001 15.3612 4.26653 18.9983C3.54306 22.6355 3.91437 26.4055 5.33352 29.8316C6.75266 33.2577 9.15589 36.186 12.2393 38.2463C15.3227 40.3066 18.9479 41.4063 22.6563 41.4063C26.8188 41.418 30.8641 40.0283 34.1406 37.4609L42.0899 45.4102C42.5321 45.8467 43.1286 46.0915 43.75 46.0915C44.3714 46.0915 44.9679 45.8467 45.4102 45.4102C45.6287 45.1924 45.802 44.9337 45.9203 44.6488C46.0386 44.3639 46.0995 44.0585 46.0995 43.75C46.0995 43.4415 46.0386 43.1361 45.9203 42.8512C45.802 42.5663 45.6287 42.3076 45.4102 42.0899ZM8.59376 22.6563C8.59376 19.875 9.41851 17.1561 10.9637 14.8436C12.5089 12.531 14.7052 10.7286 17.2748 9.6642C19.8444 8.59984 22.6719 8.32136 25.3997 8.86397C28.1276 9.40657 30.6333 10.7459 32.5999 12.7126C34.5666 14.6792 35.9059 17.1849 36.4486 19.9128C36.9912 22.6407 36.7127 25.4682 35.6483 28.0377C34.584 30.6073 32.7815 32.8036 30.469 34.3488C28.1564 35.894 25.4376 36.7188 22.6563 36.7188C18.9282 36.7136 15.3544 35.2304 12.7183 32.5942C10.0822 29.9581 8.59893 26.3843 8.59376 22.6563Z" fill="currentColor"/>
</svg>
